<?xml version="1.0" standalone="no"?> <!DOCTYPE svg PUBLIC "-//W3C//DTD SVG 1.1//EN" "http://www.w3.org/Graphics/SVG/1.1/DTD/svg11.dtd" > <svg xmlns="http://www.w3.org/2000/svg" xmlns:xlink="http://www.w3.org/1999/xlink" version="1.1" viewBox="0 0 1000 1000">  <g transform="matrix(1 0 0 -1 0 800)">  <path fill="currentColor" d="M505.5 428q-1.5 0 1 14.5t3 14.5t2 0.5t5.5 -1.5t27 -3.5t27.5 -4.5t-24.5 -10.5t-34.5 -8.5l-5.5 -1h-1.5zM535 201.5q0 0.5 24.5 0t13 -7.5t-18.5 -10t-13 7l-6 10v0.5zM559.5 -60q7.5 7 8.5 11t0.5 28.5t-1 66.5t0 42t0.5 19.5t-2 29t-2.5 11t0.5 1.5t16 8.5t17.5 8.5 t4 1.5t3.5 1.5t18 6.5t23 10.5t17.5 4t13 2.5t3 7t0 10t-9 14.5t-15.5 12t-51.5 4t-66.5 4.5t-31 7t-17.5 3.5t-9.5 -1.5t-3.5 -1.5t-2 -6t9 -17.5t14.5 -24t14 -20.5t9 -12t-29 -16t-42 -16t-7 15t8.5 44t4 25t4 17t4 17t3 12.5t3 12.5t5.5 21.5t5.5 21.5t2 8t2 8t5 19 t5 19t2 8t3 8t8.5 3.5t9 3.5t13.5 5t13.5 5t18 4.5t19.5 4.5t14 3t14 3t19 1.5t26.5 -0.5t12.5 -3t22 -1t25 2t7.5 2t6.5 3t4 7.5t0 10t-7 12.5t-13.5 10t-18.5 3t-14.5 -1.5t-40 -1t-53.5 4.5t-23.5 7t-21 5.5t-24.5 6.5t-15.5 5t-10.5 3.5t-13 3t-8 -34t-1.5 -43.5 t-42.5 -14.5t-92.5 -10.5t-83.5 -2t-34.5 7.5t-7 9.5t-12 8t-15.5 3t-23.5 -10t-10 -15.5t12 -18.5t8.5 -16.5t5.5 -4.5t4.5 -0.5t12 -0.5t12 -0.5t25 -1t48.5 -2.5t35.5 -1t27.5 3t20 3t5 1t5.5 1t19.5 2.5l31.5 5.5t30.5 6t12.5 -15.5t-9 -53t-20 -80t-22 -66t-11.5 -25.5 t-1.5 -12.5t7 -15.5t12.5 -20.5t9.5 -13.5t11 1t22 12t15.5 10t18.5 10.5t19 10.5t9 3.5t7 -56t-2 -64.5t-1.5 -12.5t-4 -4t-9 10.5t-10 10.5t-16.5 5.5t-4 -8.5t12 -20t11 -17t10.5 -13t12 -13t12.5 -10t8.5 -2.5h4zM295.5 -100q3.5 3 5.5 7t2 12.5t-5 15t-8 8t-5.5 21 t-10 49.5t-13.5 40.5t-10.5 15t-11.5 7.5t-14.5 3.5t-3 -9t12 -41t10 -52.5t6 -25.5t4 -7t6 -9t10.5 -17t7.5 -15t8.5 -5.5l6 -1zM771.5 -56q3.5 3 4.5 16.5t-2.5 51.5t-5.5 45t-8 13.5t-13 9.5t-14.5 3.5t-5 -17.5t4.5 -49t7.5 -37.5t11.5 -18t7.5 -15t5.5 -4.5l4 -1zM0 0z " />  </g> </svg>