<?xml version="1.0" standalone="no"?> <!DOCTYPE svg PUBLIC "-//W3C//DTD SVG 1.1//EN" "http://www.w3.org/Graphics/SVG/1.1/DTD/svg11.dtd" > <svg xmlns="http://www.w3.org/2000/svg" xmlns:xlink="http://www.w3.org/1999/xlink" version="1.1" viewBox="0 0 1000 1000">  <g transform="matrix(1 0 0 -1 0 800)">  <path fill="currentColor" d="M428.5 347q3.5 3 4.5 16t-0.5 19.5t-8 18.5t-8 17t-3 11t-1 6t0.5 12.5t-6.5 37t-2.5 23.5t7 1.5t3.5 6.5t0 9t-15.5 25t-22 24t-15.5 5t-3 -16.5t14.5 -54t12.5 -63.5t-2 -26.5t0 -10.5t6 -14.5t7.5 -12t12.5 -21t8.5 -14.5t5 -2h2zM504.5 430q-0.5 0 -0.5 0.5t0.5 0.5 t0.5 -0.5v-0.5h-0.5zM448.5 339q7.5 5 9 7t2.5 2t6.5 8.5t6.5 8.5t2 1.5t2 1.5t2 2t6 2t20 1.5t23 5t11 3.5t5.5 1.5t6 1.5t11 2t14 5t9 10.5t3 13.5t0 10.5t-5.5 10t-10.5 8t-13 2.5t-15.5 -3.5t-23 -8t-1 9.5t22 23.5t8.5 9.5t7.5 8t8 10t2.5 2t11 3t16 10t9.5 11.5t4 4.5 t10 11.5t12 16.5t3 12.5t-4 13t-10.5 10t-12 6.5t-17 2t-79 -20.5t-102.5 -33.5t-47 -39.5t-5 -35.5t12 -19.5t8.5 -11.5t7 2t14.5 27.5t12.5 24.5t16 7.5t16 7.5t11.5 5.5t11.5 5.5t6.5 3t6.5 3t27.5 8.5t39.5 15t15 8t4.5 1.5t6.5 0.5t-5 -13.5t-20.5 -28l-30 -33.5 t-36.5 -35.5t-33.5 -27t-22 -20.5t-13 -13t-5.5 -6.5t7 -11t12 -20t8 -14t5.5 -2h3zM523.5 111q0.5 4 1 4t4.5 11t4.5 11t1 2.5t1 2.5t1 2.5t1 2.5t1 0.5t12.5 -7.5t11 -9.5t-13 -8t-19 -11l-7 -4.5zM413.5 54q-0.5 0 -0.5 0.5t0.5 0.5t0.5 -0.5v-0.5h-0.5zM415 56 q-1 1 -0.5 1t4.5 8t5 11.5t1.5 3.5t4 6.5t4 6.5t11 16t11 16t1.5 2.5t1.5 2.5t6 8.5t6.5 8.5t11 10.5t0.5 -30.5t-11.5 -43.5t-28.5 -15.5l-26.5 -13zM390 -177q5 2 10.5 13t12.5 30t7.5 19t11.5 24t27.5 66t17 42t11 17t11 17t0.5 1.5t1 1.5t23.5 12t36 21t14.5 9t5.5 3 t7 3t6.5 2t5.5 2t5.5 2t6.5 2t7.5 3t6.5 3t6 2t7.5 2t6 0.5t8 0.5t7.5 2.5t3 8t0 11t-6 11.5t-13 9.5t-25 3.5t-36.5 1t-29 9t-16 14l-7 7t-0.5 1t20 14t20.5 14t3.5 2.5t3.5 2.5t5.5 4.5t5.5 4.5t5 4t5 4t3.5 3t3.5 3t2.5 2t2.5 2t9 4t16.5 11t12.5 11.5t4.5 10t0 11.5 t-5.5 12.5t-10 9.5t-9 4.5t-14.5 1.5t-17.5 -5t-34 -18.5l-46 -23.5t-77 -29.5t-51.5 -27t12 -18.5t7 -14.5t6 -4.5t50.5 14.5t12.5 -14t-58 -58.5t-34.5 -43.5t-16.5 -22.5t-10 -15t-3 -12t7.5 -13.5t12.5 -21t9 -16t8 -3.5t7.5 1.5t4 3t2 1.5t10 4.5t20.5 11t3 -15 t-19.5 -44t-23.5 -43t-14.5 -16t-7.5 10t-13 8.5t-14.5 3t-3 -17t8.5 -26.5t11 -18t9.5 -16t4.5 -10.5t5.5 -4l4 -1zM744.5 -133q3.5 3 4.5 12t-0.5 15.5t-4.5 11t-3.5 9t-9 16t-17 19.5t-15 11.5t-20 14t-18.5 15t-11 6.5t-13 2t0.5 -10t12.5 -21.5t13 -19t13 -11t11 -15 t8 -16t16.5 -18.5t16.5 -15.5t4 -4.5t5.5 -3.5l3.5 -0.5zM0 0z" />  </g> </svg>