<?xml version="1.0" standalone="no"?> <!DOCTYPE svg PUBLIC "-//W3C//DTD SVG 1.1//EN" "http://www.w3.org/Graphics/SVG/1.1/DTD/svg11.dtd" > <svg xmlns="http://www.w3.org/2000/svg" xmlns:xlink="http://www.w3.org/1999/xlink" version="1.1" viewBox="0 0 1000 1000">  <g transform="matrix(1 0 0 -1 0 800)">  <path fill="currentColor" d="M202.5 44q7.5 2 11.5 7.5t4.5 5.5t4.5 12.5t4.5 12.5t3.5 11t3.5 11t6.5 29.5t8.5 48t3 18.5t4.5 22.5t4.5 22.5t9.5 21.5t17 50t8.5 28.5t3.5 87t1.5 91.5t-6.5 9.5t-11 7.5t-12.5 3t-7 -87.5t-16 -160.5t-24.5 -103.5t-16 -48.5t-12.5 -27t-12 -17.5t-10.5 -6.5 t-11 1.5t1.5 -12t12 -20.5t9.5 -14t8 -5.5h2zM545.5 23.5q30.5 6.5 34.5 6.5t19 3t19 3t16 2t25.5 4t21.5 2t8.5 1t8 1t40.5 2t38 2t11 0.5t42.5 -4t58.5 -8.5t24.5 -6t4.5 -2t5.5 3t4 8t0 10.5t-7 14t-17 18.5t-22.5 18t-17.5 10t-12.5 2t0.5 -10.5t11 -19t5.5 -10.5 t-57 -2.5t-119.5 -5t-86 -8t-45 -5t-49.5 -1t-45.5 3.5t-19.5 5t-17 12.5t-21.5 24t-11 27t-5 38.5t-2 25t1.5 19.5t1.5 19.5t4 25t4 25t4 19.5t4 19.5t2.5 10.5t4 37.5t2.5 27t1.5 6t1.5 6t2.5 6t2.5 16t1 10t5.5 7.5t5.5 7.5t3.5 4t3 14t-4 15.5t-8 8.5t-9.5 5t-13 2.5 t-7.5 -1.5t-2 -2t-2.5 -3t-13 -15.5t-19 -21t-19.5 -21t-57.5 -47t-81.5 -53t-55 -33.5t-13 -20.5t11 -16.5t8 -15.5t6 -6t27 16.5t24 18t11.5 6l24 13.5l22.5 12.5t19 13t12 10.5t3 2.5t7 6t7 6t8 5.5t10.5 9.5t4.5 4t18 15t18.5 17t1 -24.5t-5 -65.5t-11.5 -71t-6.5 -70.5 t9 -51.5t18 -29.5t17 -26t23.5 -22t20 -15t18 -4.5t29.5 -2t16 0.5t3.5 0l3 -0.5zM594 309q-1 0 -1 7t0.5 7t3.5 5.5t3.5 5.5t2 3.5t2 3.5t1 2t1.5 2t7.5 5t18.5 4.5t13.5 -22t-22 -21.5t-26.5 -1l-3 -1h-1zM593.5 174.5q-2.5 0.5 -4 5t-5 11t0.5 28t5 32t2.5 10.5t10 3.5 t12 3.5t8 0.5t6.5 0.5t7.5 1t9 0.5t2.5 -9.5t-5 -24t-11.5 -29t-15.5 -21.5t-14 -10l-6 -2.5zM628 129.5q5 3.5 11 10t13 16.5t12 27.5t7.5 43t3 25.5t0.5 3t2 1.5t4 -6t6 -6t7.5 1.5t4 9t0 11.5t-8.5 16.5t-9 11t-1.5 29t-5.5 41.5t-10 18t-14 9.5t-25.5 6t-24.5 -0.5 t-16 -13t-13.5 -25t-6.5 -19.5t-19.5 25t-23.5 35t-11.5 8t-13 3t11 -29.5t18 -106.5t6.5 -84.5t10 -17t10.5 -16.5t8.5 -7t7.5 4.5t8 -0.5t12.5 -14.5t22 -11.5l12 -2zM0 0z" />  </g> </svg>