<?xml version="1.0" encoding="utf-8"?>
<svg version="1.1" xmlns="http://www.w3.org/2000/svg" xmlns:xlink="http://www.w3.org/1999/xlink" height="24" width="24">
  <defs>
    <path id="path-0" opacity="1" d="M12.819177499999995,24 L1.3246159999999918,24 C0.5928365000000042,24 0,23.406796 0,22.675301500000003 L0,1.3246055000000039 C0,0.5929249999999939 0.5929294999999968,0 1.3246160000000062,0 L22.6754775,0 C23.406977499999996,0 24,0.5929249999999939 24,1.3246055000000039 L24,22.675301500000003 C24,23.406889000000007 23.406884500000004,24 22.6754775,24 L16.5596525,24 L16.5596525,14.7058775 L19.679260499999998,14.7058775 L20.1463775,11.083793 L16.5596525,11.083793 L16.5596525,8.771320500000002 C16.5596525,7.722643500000004 16.850855999999993,7.008004999999997 18.354645000000005,7.008004999999997 L20.2726555,7.007166499999997 L20.2726555,3.767545499999997 C19.940943000000004,3.723404000000002 18.802391999999998,3.624785000000003 17.477776000000006,3.624785000000003 C14.712417000000002,3.624785000000003 12.81917750000001,5.312763000000004 12.81917750000001,8.4126045 L12.81917750000001,11.083793 L9.691561000000007,11.083793 L9.691561000000007,14.7058775 L12.81917750000001,14.7058775 L12.819177499999995,24Z"/>
  </defs>
  <g>
    <use xlink:href="#path-0" fill="rgb(0, 145, 142)" fill-opacity="1"/>
  </g>
</svg>