<?xml version="1.0" encoding="utf-8"?>
<svg version="1.1" xmlns="http://www.w3.org/2000/svg" xmlns:xlink="http://www.w3.org/1999/xlink" height="24" width="24">
  <defs>
    <path id="path-0" opacity="1" d="M18.405615999999497,4.154358000000684 C17.61036499999949,4.154358000000684 16.9656379999995,4.799085500000672 16.9656379999995,5.594384000000616 C16.9656379999995,6.389682500000617 17.61036499999949,7.034362000000556 18.405615999999497,7.034362000000556 C19.2009144999995,7.034362000000556 19.845641999999486,6.389682500000617 19.845641999999486,5.594384000000616 C19.845641999999486,4.799085500000672 19.2009144999995,4.154358000000684 18.405615999999497,4.154358000000684 L18.405615999999497,4.154358000000684ZM12.000023999999996,8 C14.209149500000024,8 16,9.790850500000033 16,12.000023999999996 C16,14.209149500000024 14.209149500000024,16 12.000023999999996,16 C9.790850499999976,16 8,14.209149500000024 8,12.000023999999996 C8,9.790850500000033 9.790850499999976,8 12.000023999999996,8 L12.000023999999996,8ZM12.000023999999598,5.83784149999974 C8.59671199999957,5.83784149999974 5.83784149999957,8.59671199999974 5.83784149999957,12.000023999999712 C5.83784149999957,15.403287999999634 8.59671199999957,18.162158499999634 12.000023999999598,18.162158499999634 C15.403287999999577,18.162158499999634 18.162158499999578,15.403287999999634 18.162158499999578,12.000023999999712 C18.162158499999578,8.59671199999974 15.403287999999577,5.83784149999974 12.000023999999598,5.83784149999974 L12.000023999999598,5.83784149999974ZM12.000024000000451,2.1621585000002597 C15.204130000000475,2.1621585000002597 15.583678000000475,2.1744005000002744 16.849030000000425,2.2321330000002604 C18.019018000000415,2.2854830000002835 18.65440900000044,2.48097300000029 19.07725650000043,2.645310500000278 C19.63738550000045,2.8629985000002875 20.037131000000443,3.123033000000248 20.457025000000442,3.542975000000297 C20.876967000000434,3.962869000000296 21.13700150000045,4.362614500000291 21.35468950000046,4.922743500000308 C21.51902700000045,5.345591000000297 21.714517000000455,5.980982000000267 21.76786700000048,7.150970000000314 C21.825599500000465,8.41632200000032 21.83784150000048,8.79587000000032 21.83784150000048,12.000024000000337 C21.83784150000048,15.204130000000305 21.825599500000465,15.583678000000361 21.76786700000048,16.84903000000037 C21.714517000000455,18.019018000000358 21.519027000000506,18.654409000000385 21.35468950000046,19.077256500000374 C21.13700150000045,19.63738550000039 20.876967000000434,20.037131000000386 20.457025000000442,20.457025000000385 C20.037131000000443,20.876967000000377 19.63738550000045,21.137001500000395 19.07725650000043,21.354689500000404 C18.65440900000044,21.519027000000392 18.019018000000415,21.7145170000004 16.849030000000425,21.767867000000365 C15.583868500000449,21.825599500000408 15.204368000000443,21.837841500000366 12.000024000000451,21.837841500000366 C8.795632000000467,21.837841500000366 8.416179000000454,21.825599500000408 7.150970000000427,21.767867000000365 C5.980982000000438,21.7145170000004 5.345591000000468,21.519027000000392 4.922743500000422,21.354689500000404 C4.362614500000461,21.137001500000395 3.96286900000041,20.876967000000377 3.5429750000004105,20.457025000000385 C3.1230805000004125,20.037131000000386 2.8629985000004012,19.63738550000039 2.6453105000004484,19.077256500000374 C2.4809730000004606,18.654409000000385 2.285483000000454,18.019018000000358 2.232133000000431,16.84903000000037 C2.174400500000445,15.583678000000361 2.16215850000043,15.204130000000305 2.16215850000043,12.000024000000337 C2.16215850000043,8.79587000000032 2.174400500000445,8.41632200000032 2.232133000000431,7.150970000000314 C2.285483000000454,5.980982000000267 2.4809730000004606,5.345591000000297 2.6453105000004484,4.922743500000308 C2.862998500000458,4.362614500000291 3.1230330000004187,3.962869000000296 3.5429750000004105,3.542975000000297 C3.96286900000041,3.123033000000248 4.362614500000404,2.8629985000002875 4.922743500000422,2.645310500000278 C5.345591000000411,2.48097300000029 5.980982000000438,2.2854830000002835 7.150970000000427,2.2321330000002604 C8.416322000000434,2.1744005000002744 8.795870000000434,2.1621585000002597 12.000024000000451,2.1621585000002597 L12.000024000000451,2.1621585000002597ZM12.000024000000053,0 C8.740995500000054,0 8.332343000000037,0.013814000000024862 7.052415500000052,0.07221349999997528 C5.775155500000039,0.1304695000000038 4.902832500000045,0.3333435000000122 4.139544000000058,0.630008499999974 C3.3504380000000538,0.9366289999999822 2.6812270000000353,1.3469484999999963 2.014064000000019,2.014064000000019 C1.3469485000000532,2.6812269999999785 0.936629000000039,3.350437999999997 0.6300085000000308,4.139544000000001 C0.33334350000006907,4.902832499999988 0.13046950000006063,5.775155499999983 0.07221350000003213,7.052415499999995 C0.013814000000081705,8.33234299999998 5.684341886080802e-14,8.740995499999997 5.684341886080802e-14,12.000023999999996 C5.684341886080802e-14,15.259004500000003 0.013814000000081705,15.667656999999963 0.07221350000003213,16.947584500000005 C0.13046950000006063,18.22484449999996 0.33334350000006907,19.097167499999955 0.6300085000000308,19.860456 C0.936629000000039,20.649562000000003 1.3469485000000532,21.318772999999965 2.014064000000019,21.98593599999998 C2.6812270000000353,22.653051499999947 3.3504380000000538,23.06337099999996 4.139544000000058,23.37003949999996 C4.902832500000045,23.66665649999993 5.775155500000039,23.869530499999996 7.052415500000052,23.927786499999968 C8.332343000000037,23.986185999999975 8.740995500000054,24 12.000024000000053,24 C15.259004500000003,24 15.66765700000002,23.986185999999975 16.947584500000005,23.927786499999968 C18.224844500000017,23.869530499999996 19.097167500000012,23.666656499999988 19.860456,23.37003949999996 C20.649562000000003,23.06337099999996 21.31877300000002,22.653051499999947 21.98593599999998,21.98593599999998 C22.653051500000004,21.318772999999965 23.06337099999996,20.649561999999946 23.37003949999996,19.860456 C23.666656499999988,19.097167499999955 23.86953049999994,18.22484449999996 23.927786499999968,16.947584500000005 C23.986185999999975,15.667656999999963 23.999999999999943,15.259004500000003 23.999999999999943,12.000023999999996 C23.999999999999943,8.740995499999997 23.98618599999992,8.33234299999998 23.927786499999968,7.052415499999995 C23.869530499999996,5.775155499999983 23.666656499999988,4.902832499999988 23.37003949999996,4.139544000000001 C23.06337099999996,3.350437999999997 22.653051499999947,2.6812269999999785 21.98593599999998,2.014064000000019 C21.318772999999965,1.3469484999999963 20.649562000000003,0.9366289999999822 19.860456,0.630008499999974 C19.097167500000012,0.3333435000000122 18.224844500000017,0.1304695000000038 16.947584500000005,0.07221349999997528 C15.66765700000002,0.013814000000024862 15.259004500000003,0 12.000024000000053,0 L12.000024000000053,0Z"/>
  </defs>
  <g>
    <use xlink:href="#path-0" fill="rgb(0, 145, 142)" fill-opacity="1"/>
  </g>
</svg>