<?xml version="1.0" encoding="utf-8"?>
<svg version="1.1" xmlns="http://www.w3.org/2000/svg" xmlns:xlink="http://www.w3.org/1999/xlink" height="23.999999999999886" width="26.39999999999918">
  <defs>
    <path id="path-0" opacity="1" d="M3.1432265999998776,0 C1.2433205999999473,0 0,1.2202085999999213 0,2.830761599999846 C0,4.410578399999736 1.207619999999963,5.656912199999681 3.070272599999896,5.656912199999681 L3.107526000000121,5.656912199999681 C5.041580399999873,5.656912199999681 6.246095999999852,4.405967999999746 6.246095999999852,2.826151199999856 C6.208842599999855,1.2171353999999042 5.041580399999816,0 3.1432265999998776,0 L3.1432265999998776,0ZM19.86984959999927,7.53947640000024 C16.92220139999938,7.53947640000024 15.07507079999948,9.136197600000173 14.733584399999415,10.254978600000186 L14.733584399999415,7.696228200000235 L8.953151399999626,7.696228200000235 C8.994272491197592,8.446015799075838 8.994272491197592,15.751490986733984 8.953151399999626,23.999999999999716 L14.733584399999415,23.999999999999716 L14.733584399999415,15.177306600000009 C14.733584399999415,14.687071800000012 14.710300799999516,14.196837000000073 14.859313199999463,13.844912400000055 C15.256679399999484,12.864442800000063 16.11039539999939,11.847090000000094 17.645531399999356,11.847090000000094 C19.65253979999926,11.847090000000094 20.565239999999278,13.354677600000059 20.565239999999278,15.56304 L20.565239999999278,23.999999999999716 L26.399999999999068,23.999999999999716 L26.399999999999068,14.934494400000005 C26.399999999999068,9.884613000000172 23.52685799999915,7.53947640000024 19.86984959999927,7.53947640000024 L19.86984959999927,7.53947640000024ZM0.6658986000002756,7.696228200000405 L0.6658986000002756,23.999999999999886 L5.811477000000139,23.999999999999886 L5.811477000000139,7.696228200000405 L0.6658986000002756,7.696228200000405Z"/>
  </defs>
  <g>
    <use xlink:href="#path-0" fill="rgb(0, 145, 142)" fill-opacity="1"/>
  </g>
</svg>