<?xml version="1.0" encoding="utf-8"?>
<svg version="1.1" xmlns="http://www.w3.org/2000/svg" xmlns:xlink="http://www.w3.org/1999/xlink" height="23.999999999999886" width="28.799999999999272">
  <defs>
    <path id="path-0" opacity="1" d="M28.800000000000043,2.8411697999999963 C27.74178540000005,3.323077199999995 26.60242980000004,3.6489708 25.407289800000047,3.7945829999999936 C26.627786400000037,3.045720599999989 27.564289200000033,1.858288199999998 28.005493800000032,0.44377020000000433 C26.862757800000033,1.1371614000000043 25.600000200000025,1.6416035999999965 24.25103040000005,1.9120259999999967 C23.175911400000068,0.7349946000000079 21.639302400000037,0 19.938721800000046,0 C16.67786580000006,0 14.032329600000038,2.7128927999999943 14.032329600000038,6.058504799999983 C14.032329600000038,6.533477999999975 14.083042800000033,6.994582799999972 14.184469200000022,7.438352999999976 C9.273745200000011,7.185265199999987 4.920866400000019,4.775731199999986 2.0048598000000295,1.1059589999999977 C1.4960382000000423,2.003900399999991 1.2052824000000317,3.045720599999989 1.2052824000000317,4.155146399999982 C1.2052824000000317,6.256121399999969 2.2482834000000347,8.110942799999972 3.8339142000000352,9.197833199999971 C2.8669836000000237,9.168364199999973 1.954146600000034,8.892740999999972 1.1562600000000307,8.51657639999998 C1.1562600000000307,11.453087999999966 3.1932384000000384,13.902491999999967 5.897940000000035,14.457204599999963 C5.402641200000046,14.599349999999962 4.8802956000000295,14.670422399999971 4.341046200000025,14.670422399999971 C3.960697200000024,14.670422399999971 3.588801000000032,14.634019799999963 3.2287374000000084,14.562946799999972 C3.980982600000001,16.96901399999996 6.1616484000000185,18.721559999999965 8.748019200000003,18.768364199999958 C6.726254399999988,20.394365999999952 4.177073400000003,21.363380399999954 1.40982540000001,21.363380399999954 C0.9331218000000028,21.363380399999954 0.461489400000016,21.335644799999958 0,21.280173599999955 C2.6151084000000746,22.99631639999992 5.72213400000008,23.999999999999922 9.057369000000065,23.999999999999922 C19.926888600000048,23.999999999999922 25.868779800000063,14.769230999999955 25.868779800000063,6.762296999999985 C25.868779800000063,6.498808199999992 25.863708600000077,6.235319399999982 25.85356560000007,5.977031399999991 "/>
  </defs>
  <g opacity="1">
    <use xlink:href="#path-0" fill="rgb(0, 145, 142)" fill-opacity="1"/>
  </g>
</svg>